<mxfile host="app.diagrams.net" modified="2023-03-24T08:17:08.035Z" agent="Mozilla/5.0 (iPad; CPU OS 16_2 like Mac OS X) AppleWebKit/605.1.15 (KHTML, like Gecko) CriOS/107.0.5304.101 Mobile/15E148 Safari/604.1" version="21.1.0" etag="ZBbXkHHF80ZN3-BvtkK4" type="github">
  <diagram name="Page-1" id="yzXat0_RvvQehavaEkqr">
    <mxGraphModel>
      <root>
        <mxCell id="0" />
        <mxCell id="1" parent="0" />
      </root>
    </mxGraphModel>
  </diagram>
</mxfile>
